<svg xmlns="http://www.w3.org/2000/svg" enable-background="new 0 0 1000 1000" viewBox="0 0 1000 1000" x="0px" y="0px" xmlns:xml="http://www.w3.org/XML/1998/namespace" xml:space="preserve" xmlns:xlink="http://www.w3.org/1999/xlink" version="1.1">
<metadata> Svg Vector Icons : http://www.onlinewebfonts.com/icon </metadata>
  <g><g transform="translate(0 249) scale(0.1 -0.1)"><path style="fill:#000000" d="M 937.3 2326.3 C 719.1 2175.6 731 2409.6 731 -2510.1 c 0 -3955.6 7.9 -4562.7 59.5 -4661.9 c 123 -242 103.2 -238 1634.6 -238 h 1400.5 v 1868.7 v 1868.7 l 134.9 134.9 c 75.4 75.4 162.7 134.9 194.4 134.9 c 39.7 0 63.5 71.4 83.3 265.8 c 103.2 1003.8 868.9 1880.6 1868.7 2134.5 c 337.2 87.3 853 75.4 1210.1 -23.8 c 976 -265.8 1686.2 -1114.9 1809.2 -2146.4 c 15.8 -158.7 43.6 -230.1 79.4 -230.1 c 87.2 0 83.3 5387.9 -4 5554.5 c -130.9 253.9 158.7 238.1 -4205.6 238.1 C 1465 2389.8 1016.6 2381.9 937.3 2326.3 Z M 1643.5 2012.9 c 142.8 -75.4 198.4 -170.6 198.4 -345.2 c 0 -174.6 -87.3 -293.6 -253.9 -349.1 c -162.7 -51.6 -297.6 -7.9 -416.6 142.8 c -138.9 178.5 -83.3 444.4 119 555.5 C 1417.3 2088.3 1504.6 2084.3 1643.5 2012.9 Z M 8701.7 2016.9 c 202.4 -107.1 261.9 -376.9 119 -555.5 c -119 -150.8 -253.9 -194.4 -416.6 -142.8 c -154.7 51.6 -253.9 190.4 -253.9 357.1 c 0 162.7 55.5 261.9 190.4 333.3 C 8475.6 2084.3 8562.9 2088.3 8701.7 2016.9 Z M 1754.6 -6438 c 214.3 -249.9 43.6 -615 -289.6 -615 c -142.8 0 -190.4 19.8 -273.8 123 c -111.1 130.9 -130.9 281.7 -47.6 428.5 C 1266.6 -6279.3 1584 -6247.5 1754.6 -6438 Z" /><path style="fill:#000000" d="M 6325.2 -1288.1 c -924.4 -154.7 -1706 -1007.7 -1757.6 -1916.3 l -7.9 -178.5 h 392.8 h 392.8 l 47.6 218.2 c 87.3 428.5 349.1 773.7 726 960.2 c 154.8 75.4 250 91.3 563.4 91.3 c 329.3 0 400.7 -15.9 575.3 -107.1 c 376.9 -198.4 654.6 -583.2 714.1 -995.8 l 27.8 -190.5 l 404.7 11.9 l 400.8 11.9 l -15.9 198.4 c -59.5 857 -765.8 1658.4 -1638.6 1864.7 C 6916.3 -1264.3 6547.4 -1252.4 6325.2 -1288.1 Z" /><path style="fill:#000000" d="M 6349 -2470.4 c -325.4 -115.1 -619 -476.1 -630.8 -781.6 l -7.9 -130.9 h 972 h 972 l -11.9 119 c -19.8 194.4 -198.4 519.7 -345.2 630.8 C 7019.5 -2418.9 6658.4 -2359.3 6349 -2470.4 Z" /><path style="fill:#000000" d="M 4190.7 -3767.8 c -35.7 -35.7 -47.6 -492 -47.6 -1805.2 c 0 -1694.1 4 -1757.6 75.4 -1797.3 c 51.6 -23.8 900.6 -39.7 2479.7 -39.7 c 2126.6 0 2404.3 7.9 2459.9 63.5 c 55.6 55.6 63.5 273.8 63.5 1797.3 c 0 1293.4 -11.9 1745.7 -47.6 1781.4 C 9106.5 -3700.4 4258.1 -3700.4 4190.7 -3767.8 Z M 7087 -4720 c 198.4 -138.9 234.1 -468.2 71.4 -674.5 c -67.5 -91.3 -67.5 -111.1 19.8 -706.2 c 47.6 -337.2 79.4 -626.9 71.4 -642.7 c -7.9 -19.8 -222.2 -31.7 -472.1 -31.7 c -388.8 0 -452.3 7.9 -452.3 63.5 c 0 35.7 35.7 329.3 83.3 654.6 l 83.3 587.2 l -83.3 107.1 c -123 154.7 -115.1 412.6 19.8 567.3 C 6598.9 -4589.1 6860.8 -4561.3 7087 -4720 Z" /></g></g></svg>