<svg xmlns="http://www.w3.org/2000/svg" xmlns:xlink="http://www.w3.org/1999/xlink" viewBox="0 0 48 48" version="1.1" width="256" height="256">
<g id="surface1">
<path style=" fill:#1565C0;" d="M 16.929688 23.550781 C 17.828125 20.59375 20.308594 16.671875 25.378906 16.671875 C 28.902344 16.671875 31.089844 18.320313 32.269531 19.628906 C 32.921875 19.4375 33.726563 19.28125 34.632813 19.28125 C 34.652344 19.28125 34.671875 19.285156 34.691406 19.285156 C 34.730469 19 34.0625 12 26.019531 12 C 20.519531 12 18.574219 16.691406 18.574219 16.691406 C 18.574219 16.691406 14.585938 13.726563 10.488281 17.824219 C 8.382813 19.929688 8.871094 23.160156 8.871094 23.160156 C 8.871094 23.160156 4.015625 23.648438 4.015625 28.824219 C 4.019531 33.515625 9.03125 34 9.03125 34 L 11.890625 34 C 11.386719 33.039063 11.070313 31.886719 11.070313 30.492188 C 11.070313 26.101563 14.347656 24.175781 16.929688 23.550781 Z "/>
<path style=" fill:#1565C0;" d="M 40.4375 36 C 40.4375 36 44 35.515625 44 31.789063 C 44 28.0625 40.113281 27.253906 40.113281 27.253906 C 40.113281 27.253906 40.707031 23.855469 37.578125 22.070313 C 34.445313 20.292969 31.585938 22.070313 31.585938 22.070313 C 31.585938 22.070313 29.910156 18.671875 25.378906 18.671875 C 19.546875 18.671875 18.574219 25.3125 18.574219 25.3125 C 18.574219 25.3125 13.070313 25.636719 13.070313 30.492188 C 13.070313 35.351563 18.089844 36 18.089844 36 Z "/>
</g>
</svg>